[img]http://img818.imageshack.us/img818/2901/53783106.jpg[/img]



[img]http://leetleech.org/images/48874973695367351744.png[/img]


Format                           : AVI
Format/Info                      : Audio Video Interleave
File size                        : 1.34 GiB
Duration                         : 1h 32mn
Overall bit rate                 : 2 065 Kbps
Writing library                  : VirtualDub build 32839/release

Video
ID                               : 0
Format                           : MPEG-4 Visual
Format profile                   : Advanced Simple@L5
Format settings, BVOP            : Yes
Format settings, QPel            : No
Format settings, GMC             : No warppoints
Format settings, Matrix          : Custom
Codec ID                         : XVID
Codec ID/Hint                    : XviD
Duration                         : 1h 32mn
Bit rate                         : 1 927 Kbps
Width                            : 720 pixels
Height                           : 480 pixels
Display aspect ratio             : 3:2
Frame rate                       : 25.000 fps
Standard                         : NTSC
Color space                      : YUV
Chroma subsampling               : 4:2:0
Bit depth                        : 8 bits
Scan type                        : Progressive
Bits/(Pixel*Frame)               : 0.223
Stream size                      : 1.25 GiB (93%)
Writing library                  : XviD 1.2.1 (UTC 2008-12-04)

Audio
ID                               : 1
Format                           : MPEG Audio
Format version                   : Version 1
Format profile                   : Layer 3
Codec ID                         : 55
Codec ID/Hint                    : MP3
Duration                         : 1h 32mn
Bit rate mode                    : Constant
Bit rate                         : 128 Kbps
Channel(s)                       : 2 channels
Sampling rate                    : 44.1 KHz
Stream size                      : 84.9 MiB (6%)
Alignment                        : Split accross interleaves
Interleave, duration             : 40 ms (1.00 video frame)
Interleave, preload duration     : 500 ms




[url]http://www.imdb.com/title/tt1502404/[/url]




[IMG]http://leetleech.org/images/89524873606771859129.png[/IMG]


Users: 6.4/10 (2,645 votes) 40 reviews | Critics: 83 reviews Metascore: 44/100 (based on 21 reviews from Metacritic.com)

A vengeful father escapes from hell and chases after the men who killed his daughter and kidnapped his granddaughter.
Director:
Patrick Lussier
Writers:
Todd Farmer, Patrick Lussier
Stars:
Nicolas Cage, Amber Heard and William Fichtner




[img]http://leetleech.org/images/95521316153253938506.png[/img]




[img]http://img94.imageshack.us/img94/4179/vlcsnap2011030708h45m11.png[/img]

[img]http://img534.imageshack.us/img534/8627/vlcsnap2011030708h45m01.png[/img]

[img]http://img11.imageshack.us/img11/5472/vlcsnap2011030708h45m31.png[/img]


SOURCES:



VIDEO: Cinedub... Thanks

AUDIO: Imagine  ... Thanks

Just my take on it slight drop in brightness/contrast rgb not a great deal on this one ..Thanks again Imagine 


Enjoy !







Greetz to Imagine ,Flawl3ss ,Santi ,Vision ,Kingdom, BDK, TOXiCiNK, THC, Ez, Rx,





[img]http://img411.imageshack.us/img411/6898/sig1n.jpg[/img]





